<svg xmlns="http://www.w3.org/2000/svg" width="303.973" height="64.621" viewBox="0 0 303.973 64.621">
  <g id="Group_131" data-name="Group 131" transform="translate(0 -0.431)">
    <circle id="Ellipse_39" data-name="Ellipse 39" cx="13.048" cy="13.048" r="13.048" transform="translate(0 38.957)" fill="#fff"/>
    <g id="Group_130" data-name="Group 130" transform="translate(177.652 2.107)">
      <path id="Path_342" data-name="Path 342" d="M135.8,16.595h-2.724l-.86-3.441h-4.875l-.86,3.441H123.9L128.058,2.4h3.728ZM129.779,4.121l-1.864,6.739H131.5Z" transform="translate(-123.9 -1.253)" fill="#fff"/>
      <path id="Path_343" data-name="Path 343" d="M137.488,8.3v8.46h-2.581V8.3H132.9V6.575l2.007-.287V5.571a4.618,4.618,0,0,1,1-2.868,3.7,3.7,0,0,1,2.868-1,2.44,2.44,0,0,1,1,.143,2.658,2.658,0,0,1,1,.287l-.43,2.007c-.287,0-.43-.143-.717-.143h-.717c-.574,0-1,.143-1.147.43a1.9,1.9,0,0,0-.43,1.434v.574h2.868V8.582L137.488,8.3Z" transform="translate(-119.995 -1.557)" fill="#fff"/>
      <path id="Path_344" data-name="Path 344" d="M142.581,7.985v7.6H140V4.687h2.438V6.121A5.456,5.456,0,0,1,144.3,4.83a5.06,5.06,0,0,1,2.007-.43V6.981a7.474,7.474,0,0,0-2.007.287A8.77,8.77,0,0,0,142.581,7.985Z" transform="translate(-116.915 -0.385)" fill="#fff"/>
      <path id="Path_345" data-name="Path 345" d="M148.954,3.034a1.116,1.116,0,0,1-.43,1,2.137,2.137,0,0,1-1.147.43,1.628,1.628,0,0,1-1.147-.43,1.3,1.3,0,0,1-.43-1,1.116,1.116,0,0,1,.43-1,1.411,1.411,0,0,1,1.147-.43,1.628,1.628,0,0,1,1.147.43A1.3,1.3,0,0,1,148.954,3.034ZM146.23,5.9h2.581V16.942H146.23Z" transform="translate(-114.399 -1.6)" fill="#fff"/>
      <path id="Path_346" data-name="Path 346" d="M154.518,15.871a4.785,4.785,0,0,1-3.871-1.434c-.86-.86-1.147-2.294-1.147-4.3a6.422,6.422,0,0,1,1.29-4.3A4.664,4.664,0,0,1,154.518,4.4a6.428,6.428,0,0,1,3.3.717l-.86,2.007a9.88,9.88,0,0,1-1.147-.43,2.8,2.8,0,0,0-1-.143,2.406,2.406,0,0,0-2.007.86,4.311,4.311,0,0,0-.574,2.581,4.311,4.311,0,0,0,.574,2.581,2.329,2.329,0,0,0,2.007.717,3.157,3.157,0,0,0,1.147-.143,3.748,3.748,0,0,0,1.147-.43l.717,2.007a5.136,5.136,0,0,1-1.577.574A2.107,2.107,0,0,1,154.518,15.871Z" transform="translate(-112.794 -0.385)" fill="#fff"/>
      <path id="Path_347" data-name="Path 347" d="M165.49,8.558v7.026h-2.438V14.437a4.369,4.369,0,0,1-1.434,1,3.818,3.818,0,0,1-1.721.43,3.373,3.373,0,0,1-2.438-.86,3.256,3.256,0,0,1-.86-2.294,3.459,3.459,0,0,1,1-2.438,4.281,4.281,0,0,1,2.868-.86h2.438V8.7a2.576,2.576,0,0,0-.43-1.577,2.306,2.306,0,0,0-1.577-.43,4.878,4.878,0,0,0-1.434.143,16.08,16.08,0,0,0-1.864.717l-.86-2.007a9.167,9.167,0,0,1,2.294-.86,11.068,11.068,0,0,1,2.151-.287,4.183,4.183,0,0,1,3.154,1A4.107,4.107,0,0,1,165.49,8.558Zm-6.452,4.015a1.116,1.116,0,0,0,.43,1,1.411,1.411,0,0,0,1.147.43,2.7,2.7,0,0,0,1.147-.287,2.23,2.23,0,0,0,1.147-.86V11.282h-2.294a1.853,1.853,0,0,0-1.147.287A1.639,1.639,0,0,0,159.038,12.573Z" transform="translate(-109.714 -0.385)" fill="#fff"/>
      <path id="Path_348" data-name="Path 348" d="M167.181,7.985v7.743H164.6V4.687h2.438v1.29a4.021,4.021,0,0,1,1.721-1.147,3.818,3.818,0,0,1,1.721-.43,2.954,2.954,0,0,1,2.438,1,3.882,3.882,0,0,1,.86,2.724v7.456H171.2V8.558a1.753,1.753,0,0,0-.43-1.29,1.411,1.411,0,0,0-1.147-.43,4.187,4.187,0,0,0-1.29.287C168.185,7.411,167.754,7.554,167.181,7.985Z" transform="translate(-106.243 -0.385)" fill="#fff"/>
      <path id="Path_349" data-name="Path 349" d="M127.138,21.441V32.195H124.7V18h3.154l3.585,7.743L134.88,18h3.011V32.195h-2.438V21.441L132.3,28.18h-2.151Z" transform="translate(-123.553 5.515)" fill="#fff"/>
      <path id="Path_350" data-name="Path 350" d="M144.99,24.115v7.026h-2.438V29.993a4.37,4.37,0,0,1-1.434,1,3.818,3.818,0,0,1-1.721.43,3.373,3.373,0,0,1-2.438-.86,3.256,3.256,0,0,1-.86-2.294,3.459,3.459,0,0,1,1-2.438,4.55,4.55,0,0,1,2.868-.86h2.438V24.4a2.576,2.576,0,0,0-.43-1.577c-.287-.43-.86-.43-1.577-.43a4.878,4.878,0,0,0-1.434.143,16.08,16.08,0,0,0-1.864.717l-.86-2.007a9.166,9.166,0,0,1,2.294-.86,11.068,11.068,0,0,1,2.151-.287,4.183,4.183,0,0,1,3.154,1A4.107,4.107,0,0,1,144.99,24.115Zm-6.6,4.015a1.116,1.116,0,0,0,.43,1,1.411,1.411,0,0,0,1.147.43,2.7,2.7,0,0,0,1.147-.287,2.23,2.23,0,0,0,1.147-.86V26.839h-2.294a1.853,1.853,0,0,0-1.147.287A1.116,1.116,0,0,0,138.394,28.129Z" transform="translate(-118.607 6.426)" fill="#fff"/>
      <path id="Path_351" data-name="Path 351" d="M147.081,23.585v7.743H144.5V20.287h2.438v1.29a4.021,4.021,0,0,1,1.721-1.147,3.818,3.818,0,0,1,1.721-.43,2.954,2.954,0,0,1,2.438,1,4.134,4.134,0,0,1,.86,2.724v7.456H151.1V24.015a1.753,1.753,0,0,0-.43-1.29,1.411,1.411,0,0,0-1.147-.43,4.186,4.186,0,0,0-1.29.287C148.085,23.011,147.654,23.154,147.081,23.585Z" transform="translate(-114.963 6.383)" fill="#fff"/>
      <path id="Path_352" data-name="Path 352" d="M161.79,24.115v7.026h-2.438V29.993a4.369,4.369,0,0,1-1.434,1,3.818,3.818,0,0,1-1.721.43,3.373,3.373,0,0,1-2.437-.86,3.256,3.256,0,0,1-.86-2.294,3.459,3.459,0,0,1,1-2.438,4.55,4.55,0,0,1,2.868-.86h2.438V24.4a2.576,2.576,0,0,0-.43-1.577,2.306,2.306,0,0,0-1.577-.43,4.878,4.878,0,0,0-1.434.143,16.08,16.08,0,0,0-1.864.717l-.86-2.007a9.166,9.166,0,0,1,2.294-.86,11.068,11.068,0,0,1,2.151-.287,4.183,4.183,0,0,1,3.154,1A3.613,3.613,0,0,1,161.79,24.115Zm-6.452,4.015a1.116,1.116,0,0,0,.43,1,1.411,1.411,0,0,0,1.147.43,2.7,2.7,0,0,0,1.147-.287,2.23,2.23,0,0,0,1.147-.86V26.839h-2.294a1.853,1.853,0,0,0-1.147.287A1.116,1.116,0,0,0,155.338,28.129Z" transform="translate(-111.319 6.426)" fill="#fff"/>
      <path id="Path_353" data-name="Path 353" d="M170.163,23.9a3.671,3.671,0,0,1-1.147,2.724,5.171,5.171,0,0,1-3.154,1h-1.147a4.774,4.774,0,0,0-.86.43.745.745,0,0,0-.287.574c0,.143.143.287.287.43a1.075,1.075,0,0,0,.717.143h2.868a4.257,4.257,0,0,1,2.581.717,2.8,2.8,0,0,1,1,2.151,3.487,3.487,0,0,1-1.577,2.868,6.994,6.994,0,0,1-4.015,1.147,6.116,6.116,0,0,1-3.441-.86,2.528,2.528,0,0,1-1.29-2.151,2.313,2.313,0,0,1,.43-1.29,2.088,2.088,0,0,1,1.29-.86c-.43-.143-.574-.43-.86-.86a1.365,1.365,0,0,1-.287-1,2.313,2.313,0,0,1,.43-1.29,3.451,3.451,0,0,1,1.147-.86,2.551,2.551,0,0,1-1-1.147,3.058,3.058,0,0,1-.43-1.721,3.671,3.671,0,0,1,1.147-2.724,4.4,4.4,0,0,1,3.154-1,2.126,2.126,0,0,1,1,.143,3.648,3.648,0,0,1,1,.287L170.88,19.6l.717,2.151-2.007.574c.143.287.43.574.43.86A2.917,2.917,0,0,1,170.163,23.9ZM164,31.357c-.287.143-.574.287-.574.574a1.074,1.074,0,0,0-.143.717.96.96,0,0,0,.574,1,3.058,3.058,0,0,0,1.721.43,4.389,4.389,0,0,0,2.151-.43,1.345,1.345,0,0,0,.86-1.147,1.1,1.1,0,0,0-.287-.717,1.671,1.671,0,0,0-1-.287h-3.154c0-.143,0-.143-.143-.143Zm0-7.456a1.753,1.753,0,0,0,.43,1.29,2.6,2.6,0,0,0,2.868,0,1.753,1.753,0,0,0,.43-1.29,1.753,1.753,0,0,0-.43-1.29,2.6,2.6,0,0,0-2.868,0A1.753,1.753,0,0,0,164,23.9Z" transform="translate(-107.935 6.209)" fill="#fff"/>
      <path id="Path_354" data-name="Path 354" d="M177.516,28.56l.86,2.007a7.2,7.2,0,0,1-1.864.717,11.248,11.248,0,0,1-2.007.287c-1.864,0-3.154-.43-4.015-1.434a6.018,6.018,0,0,1-1.29-4.158,6.687,6.687,0,0,1,1.29-4.3,4.231,4.231,0,0,1,3.585-1.577,4.319,4.319,0,0,1,3.3,1.29,4.715,4.715,0,0,1,1.147,3.585v.86l-.717.86h-6.022a2.406,2.406,0,0,0,.86,2.007,2.836,2.836,0,0,0,2.007.717,4.878,4.878,0,0,0,1.434-.143C176.513,28.99,177.086,28.846,177.516,28.56Zm-3.441-6.309a1.958,1.958,0,0,0-1.577.574,3.192,3.192,0,0,0-.717,1.864h4.3a2.433,2.433,0,0,0-.574-1.864,1.51,1.51,0,0,0-1.434-.574Z" transform="translate(-104.247 6.426)" fill="#fff"/>
      <path id="Path_355" data-name="Path 355" d="M180.081,23.585v7.743H177.5V20.287h2.438v1.29a4.021,4.021,0,0,1,1.721-1.147,3.268,3.268,0,0,1,1.577-.43,3.058,3.058,0,0,1,1.721.43,3.385,3.385,0,0,1,1.147,1.29,7.29,7.29,0,0,1,1.864-1.29,3.969,3.969,0,0,1,1.864-.43,2.954,2.954,0,0,1,2.438,1,3.882,3.882,0,0,1,.86,2.724v7.456h-2.581V24.015a2.863,2.863,0,0,0-.287-1.29,1.116,1.116,0,0,0-1-.43,4,4,0,0,0-2.438,1.147v7.743h-2.868V24.015a2.863,2.863,0,0,0-.287-1.29,1.116,1.116,0,0,0-1-.43,3.375,3.375,0,0,0-1.147.287,12.4,12.4,0,0,0-1.434,1Z" transform="translate(-100.646 6.383)" fill="#fff"/>
      <path id="Path_356" data-name="Path 356" d="M198.416,28.56l.86,2.007a7.2,7.2,0,0,1-1.864.717,11.248,11.248,0,0,1-2.007.287c-1.864,0-3.154-.43-4.015-1.434a6.018,6.018,0,0,1-1.29-4.158,6.687,6.687,0,0,1,1.29-4.3,4.231,4.231,0,0,1,3.585-1.577,4.319,4.319,0,0,1,3.3,1.29,4.715,4.715,0,0,1,1.147,3.585v.86l-.717.86h-6.022a2.406,2.406,0,0,0,.86,2.007,2.836,2.836,0,0,0,2.007.717,4.878,4.878,0,0,0,1.434-.143A13.321,13.321,0,0,1,198.416,28.56Zm-3.585-6.309a1.958,1.958,0,0,0-1.577.574,3.191,3.191,0,0,0-.717,1.864h4.3a2.433,2.433,0,0,0-.574-1.864c-.143-.43-.717-.574-1.434-.574Z" transform="translate(-95.18 6.426)" fill="#fff"/>
      <path id="Path_357" data-name="Path 357" d="M200.981,23.585v7.743H198.4V20.287h2.438v1.29a4.021,4.021,0,0,1,1.721-1.147,3.818,3.818,0,0,1,1.721-.43,2.954,2.954,0,0,1,2.438,1,3.882,3.882,0,0,1,.86,2.724v7.456H205V24.015a1.753,1.753,0,0,0-.43-1.29,1.411,1.411,0,0,0-1.147-.43,4.187,4.187,0,0,0-1.29.287C201.841,23.011,201.411,23.154,200.981,23.585Z" transform="translate(-91.579 6.383)" fill="#fff"/>
      <path id="Path_358" data-name="Path 358" d="M210.745,21.068h3.3v2.151h-3.3V28.38a2.221,2.221,0,0,0,.287,1.147,1.671,1.671,0,0,0,1,.287,1.819,1.819,0,0,0,.86-.143,2.038,2.038,0,0,0,.86-.287l.717,2.007a5.093,5.093,0,0,1-1.29.574,4.878,4.878,0,0,1-1.434.143,3.068,3.068,0,0,1-2.581-1,3.882,3.882,0,0,1-.86-2.724V23.075H206.3V21.211l2.151-.287.574-2.724h1.864l-.143,2.868Z" transform="translate(-88.152 5.602)" fill="#fff"/>
      <path id="Path_359" data-name="Path 359" d="M126.777,33.6V47.795H125.2V33.6Z" transform="translate(-123.336 12.283)" fill="#fff"/>
      <path id="Path_360" data-name="Path 360" d="M130.777,38.768V46.8H129.2V36.187h1.577v1.434a11.046,11.046,0,0,1,1.864-1.29,3.969,3.969,0,0,1,1.864-.43,2.823,2.823,0,0,1,2.294.86,3.505,3.505,0,0,1,.86,2.581v7.313h-1.577V39.341a2.306,2.306,0,0,0-.43-1.577,1.662,1.662,0,0,0-1.434-.574,3.268,3.268,0,0,0-1.577.43,8.129,8.129,0,0,0-1.864,1.147Z" transform="translate(-121.601 13.281)" fill="#fff"/>
      <path id="Path_361" data-name="Path 361" d="M144.313,44.029a2.58,2.58,0,0,1-1,2.151,3.742,3.742,0,0,1-2.581.86,8.392,8.392,0,0,1-1.864-.287,4.444,4.444,0,0,1-1.864-.86l.574-1.29a8.565,8.565,0,0,0,1.577.86,6.1,6.1,0,0,0,1.577.287,2.141,2.141,0,0,0,1.434-.43,1.49,1.49,0,0,0,.574-1.147,1.3,1.3,0,0,0-.43-1,6.608,6.608,0,0,0-1.864-1A8.194,8.194,0,0,1,138,40.732a2.285,2.285,0,0,1-.574-1.721,2.58,2.58,0,0,1,1-2.151,3.505,3.505,0,0,1,2.581-.86,7.2,7.2,0,0,1,1.721.287,5.3,5.3,0,0,1,1.577.717l-.717,1.29a4.294,4.294,0,0,0-1.434-.574,3.97,3.97,0,0,0-1.29-.143,2.141,2.141,0,0,0-1.434.43,1.451,1.451,0,0,0-.574,1,1.3,1.3,0,0,0,.43,1,6.609,6.609,0,0,0,1.864,1,6.572,6.572,0,0,1,2.438,1.434,1.85,1.85,0,0,1,.717,1.577Z" transform="translate(-118.217 13.324)" fill="#fff"/>
      <path id="Path_362" data-name="Path 362" d="M146.785,36.924h3.585v1.29h-3.585v6.309a2.141,2.141,0,0,0,.43,1.434,1.411,1.411,0,0,0,1.147.43,1.819,1.819,0,0,0,.86-.143,5.2,5.2,0,0,0,1-.43l.574,1.147a5.093,5.093,0,0,1-1.29.574,3.97,3.97,0,0,1-1.29.143,3.027,3.027,0,0,1-2.294-.86,3.119,3.119,0,0,1-.717-2.438V38.215H143.2v-1l2.007-.287.43-2.724h1.147v2.724Z" transform="translate(-115.527 12.543)" fill="#fff"/>
      <path id="Path_363" data-name="Path 363" d="M152.107,34.3a.98.98,0,1,1-.287-.717A1.1,1.1,0,0,1,152.107,34.3Zm-1.864,3.011h1.577v10.61h-1.577Z" transform="translate(-112.534 12.153)" fill="#fff"/>
      <path id="Path_364" data-name="Path 364" d="M156.585,36.924h3.585v1.29h-3.585v6.309a2.141,2.141,0,0,0,.43,1.434,1.411,1.411,0,0,0,1.147.43,1.819,1.819,0,0,0,.86-.143,5.2,5.2,0,0,0,1-.43l.574,1.147a5.093,5.093,0,0,1-1.29.574,3.97,3.97,0,0,1-1.29.143,3.027,3.027,0,0,1-2.294-.86,3.119,3.119,0,0,1-.717-2.438V38.215H153v-1l2.007-.287.43-2.724h1.147v2.724Z" transform="translate(-111.275 12.543)" fill="#fff"/>
      <path id="Path_365" data-name="Path 365" d="M160,43.313V36h1.577v7.313a2.306,2.306,0,0,0,.43,1.577,1.663,1.663,0,0,0,1.434.574,3.738,3.738,0,0,0,1.577-.43,10.7,10.7,0,0,0,1.721-1V36h1.577V46.61h-1.577V45.177a5.462,5.462,0,0,1-1.864,1.147,3.818,3.818,0,0,1-1.721.43,2.823,2.823,0,0,1-2.294-.86,3.092,3.092,0,0,1-.86-2.581Z" transform="translate(-108.239 13.324)" fill="#fff"/>
      <path id="Path_366" data-name="Path 366" d="M171.085,36.924h3.585v1.29h-3.585v6.309a2.141,2.141,0,0,0,.43,1.434,1.411,1.411,0,0,0,1.147.43,1.819,1.819,0,0,0,.86-.143,5.2,5.2,0,0,0,1-.43l.574,1.147a5.092,5.092,0,0,1-1.29.574,3.969,3.969,0,0,1-1.29.143,3.027,3.027,0,0,1-2.294-.86,3.119,3.119,0,0,1-.717-2.438V38.215H167.5v-1l2.007-.287.43-2.724h1.147v2.724Z" transform="translate(-104.985 12.543)" fill="#fff"/>
      <path id="Path_367" data-name="Path 367" d="M182.029,44.833l.574,1.147a4.786,4.786,0,0,1-1.721.717,8.463,8.463,0,0,1-2.007.287,4.181,4.181,0,0,1-3.585-1.434A6.7,6.7,0,0,1,174,41.535a6.836,6.836,0,0,1,1.147-4.158,4.365,4.365,0,0,1,6.309-.43,5.232,5.232,0,0,1,1.147,3.441v.86l-.43.574h-6.6a3.651,3.651,0,0,0,.86,2.724,3.373,3.373,0,0,0,2.438.86,5.882,5.882,0,0,0,1.577-.143A2.89,2.89,0,0,0,182.029,44.833Zm-3.441-7.456a2.406,2.406,0,0,0-2.007.86,5.444,5.444,0,0,0-.86,2.581h5.592a3.586,3.586,0,0,0-.574-2.438,2.251,2.251,0,0,0-2.151-1Z" transform="translate(-102.165 13.237)" fill="#fff"/>
    </g>
    <path id="Path_368" data-name="Path 368" d="M95.8,9.6V47.883a13.048,13.048,0,1,0,26.1,0V17.629" transform="translate(41.561 3.978)" fill="#fff"/>
    <path id="Path_369" data-name="Path 369" d="M11.6,13,27.372,51.427A13.087,13.087,0,0,0,51.6,41.533L40.85,15.438" transform="translate(5.032 5.453)" fill="#fff"/>
    <path id="Path_370" data-name="Path 370" d="M36.128,8.559a13.087,13.087,0,1,0-7.169,17.063C32.4,24.188,41,20.747,43.727,27.342Z" transform="translate(4.737 0)" fill="#fff"/>
    <path id="Path_371" data-name="Path 371" d="M96.521,15a6.527,6.527,0,0,0-3.3,1.864L75.3,21.739v23.8a13.048,13.048,0,1,0,26.1,0V22.886C101.4,20.162,99.1,15,96.521,15Z" transform="translate(32.668 6.32)" fill="#fff"/>
    <path id="Path_372" data-name="Path 372" d="M46.775,15.693c-2.581,0-4.875-2.151-4.875.574V45.66a13.048,13.048,0,1,0,26.1,0V32.182L50.073,15.119C48.926,13.972,47.349,15.693,46.775,15.693Z" transform="translate(18.178 6.201)" fill="#fff"/>
    <path id="Path_373" data-name="Path 373" d="M41.9,31.029a4.927,4.927,0,0,1,4.875-4.875,4.842,4.842,0,0,1,3.3,1.29L68,46.945l1,1A8.651,8.651,0,0,0,70.147,49.1a13.03,13.03,0,0,0,8.173,3.441h1.147A12.714,12.714,0,0,0,87.639,49.1l1.147-1.147,1-1,17.923-19.5a4.871,4.871,0,0,1,8.173,3.585V13.536a13.142,13.142,0,0,0-4.158-9.607,12.948,12.948,0,0,0-18.353.86L79.036,20.419,64.7,4.79a12.954,12.954,0,0,0-18.353-.86,12.337,12.337,0,0,0-4.158,9.607Z" transform="translate(18.178 0.041)" fill="#fff"/>
    <path id="Path_374" data-name="Path 374" d="M108.848.5a13.048,13.048,0,1,0,0,26.1c3.728,0,13.048.287,13.048,7.169V13.548A13,13,0,0,0,108.848.5Z" transform="translate(41.561 0.03)" fill="#fff"/>
  </g>
</svg>
