<svg xmlns="http://www.w3.org/2000/svg" width="42.807" height="85.238" viewBox="0 0 42.807 85.238">
  <g id="Group_261" data-name="Group 261" transform="translate(-410.556 -1371.811)">
    <g id="Layer_3" data-name="Layer 3" transform="translate(414.758 1399.093)">
      <path id="Path_2686" data-name="Path 2686" d="M456.792,1535.7h-7.558L435.8,1572.423h7.025l3-8.507,1.831-5.244,5.294-15.282,5.344,15.282,1.831,5.244,2.946,8.507h7.142Z" transform="translate(-435.8 -1535.7)" fill="#f9903f"/>
    </g>
    <path id="Path_2687" data-name="Path 2687" d="M516.518,1689.047h-1a.258.258,0,0,1-.283-.216v-.749a.092.092,0,0,0-.05-.083c-.366-.2-.716-.416-1.082-.616a.106.106,0,0,0-.1,0c-.2.116-.383.216-.583.333a.258.258,0,0,1-.35-.033.126.126,0,0,1-.033-.067l-1-1.731a.245.245,0,0,1,.05-.35.086.086,0,0,1,.067-.033c.2-.116.383-.233.583-.333a.091.091,0,0,0,.05-.083v-1.249a.092.092,0,0,0-.05-.083c-.2-.116-.4-.233-.583-.333a.253.253,0,0,1-.133-.316c0-.017.017-.033.033-.05l1-1.748a.238.238,0,0,1,.316-.133c.017.017.033.017.067.033.2.116.4.216.583.333a.106.106,0,0,0,.1,0c.366-.217.716-.416,1.082-.616a.092.092,0,0,0,.05-.083v-.683a.242.242,0,0,1,.216-.266h2.081a.242.242,0,0,1,.266.217v.749a.091.091,0,0,0,.05.083c.366.2.732.416,1.082.633a.076.076,0,0,0,.083,0l.6-.349a.24.24,0,0,1,.333.05c.017.017.017.017.017.033.35.583.682,1.182,1.016,1.765a.241.241,0,0,1-.067.333c-.017,0-.017.017-.033.017l-.6.35a.081.081,0,0,0-.05.1v1.249a.091.091,0,0,0,.05.083l.6.35a.231.231,0,0,1,.117.316c0,.017-.017.033-.017.05l-1.016,1.748a.253.253,0,0,1-.316.133c-.017,0-.033-.017-.05-.033l-.6-.349a.105.105,0,0,0-.1,0c-.366.216-.716.416-1.082.616a.091.091,0,0,0-.05.083v.683a.242.242,0,0,1-.216.266h-1.049Zm-3.962-5.943.566.333a.26.26,0,0,1,.133.217v1.615a.26.26,0,0,1-.117.217l-.166.1-.416.233.8,1.382c.183-.116.366-.217.549-.316a.285.285,0,0,1,.283,0l1.382.8a.26.26,0,0,1,.133.217v.666h1.6v-.649a.266.266,0,0,1,.133-.233c.466-.266.916-.533,1.382-.8a.249.249,0,0,1,.3,0c.166.1.316.183.483.283l.067.033.8-1.382-.566-.333a.24.24,0,0,1-.133-.217v-1.631a.284.284,0,0,1,.117-.216,1.773,1.773,0,0,1,.183-.1l.4-.233-.8-1.382c-.183.116-.366.216-.549.316a.286.286,0,0,1-.283,0c-.466-.266-.932-.533-1.382-.8a.26.26,0,0,1-.133-.217v-.649h-1.6v.633a.294.294,0,0,1-.133.25c-.45.266-.916.516-1.365.8a.276.276,0,0,1-.316,0c-.166-.1-.316-.183-.483-.283l-.067-.033Z" transform="translate(-84.547 -256.793)" fill="#f9903f"/>
    <path id="Path_2688" data-name="Path 2688" d="M528.2,1694.1a2.2,2.2,0,1,1-2.2,2.2,2.2,2.2,0,0,1,2.2-2.2Zm0,3.912a1.715,1.715,0,1,0-1.715-1.715v.033a1.716,1.716,0,0,0,1.715,1.681Z" transform="translate(-96.226 -268.638)" fill="#f9903f"/>
    <path id="Path_2689" data-name="Path 2689" d="M453.329,1414.542h0v-21.874c0-4.661.017-9.306,0-13.967a6.335,6.335,0,0,0-.832-3.246,7.107,7.107,0,0,0-6.509-3.613c-9.339-.05-18.661-.033-28,0a7.509,7.509,0,0,0-3.979,1.016,6.5,6.5,0,0,0-3.18,4.395,19.289,19.289,0,0,0-.266,4.145v55.235c0,4.312-.017,8.623,0,12.935a7.869,7.869,0,0,0,.732,3.646,6.475,6.475,0,0,0,6.126,3.829H446.7a4.827,4.827,0,0,0,1.1-.05,6.741,6.741,0,0,0,5.26-4.778,9.2,9.2,0,0,0,.3-2.514Q453.313,1432.1,453.329,1414.542Zm-3.246,38.438a4.039,4.039,0,0,1-3.413,1.765q-7.067-.025-14.133-.017c-2.53,0-5.044,0-7.574.017-2.5,0-4.994-.05-7.491.017a4.3,4.3,0,0,1-4.162-2.88,4.515,4.515,0,0,1-.167-1.249q-.025-8.939-.017-17.879v-53.886a4.565,4.565,0,0,1,.466-2.3,3.785,3.785,0,0,1,3.146-2.147c1.332-.083,2.664-.1,4-.116a2.521,2.521,0,0,1,.533.1c.133.533.216.949.35,1.348a2.211,2.211,0,0,0,1.9,1.5,5.719,5.719,0,0,0,.932.067h15.665a2.432,2.432,0,0,0,2.464-2.414,2.916,2.916,0,0,1,.05-.4c.1-.05.167-.117.25-.117a33.322,33.322,0,0,1,4.661.117,3.914,3.914,0,0,1,3.279,3.829c.017.283.017.566.017.849v70.9A4.524,4.524,0,0,1,450.083,1452.98Z" transform="translate(0 0)" fill="#f9903f"/>
  </g>
</svg>
