<svg xmlns="http://www.w3.org/2000/svg" width="55" height="55" viewBox="0 0 55 55"><g id="Group_321" data-name="Group 321" transform="translate(-819 -6991)"><circle id="Ellipse_56" data-name="Ellipse 56" cx="27.5" cy="27.5" r="27.5" transform="translate(819 6991)" fill="#f98d41"></circle><g id="Group_178" data-name="Group 178" transform="translate(832 7002)"><path id="Path_2386" data-name="Path 2386" d="M294.425,282.254l4.864,5.132c-5.409,6.389-16.307,7.31-23.05,1.367-6.958-6.133-7.211-17.772-.557-24.077,6.32-5.988,17.666-5.84,23.594.979l-5,5.031a9.779,9.779,0,0,0-8.9-3.031,8.451,8.451,0,0,0-5.562,3.16,9.621,9.621,0,0,0,.807,12.268C283.433,285.9,289.65,287.2,294.425,282.254Z" transform="translate(-270.851 -260.354)" fill="#fff"></path><path id="Path_2387" data-name="Path 2387" d="M335,320.445a5.362,5.362,0,0,1,5.4,5.417,5.4,5.4,0,0,1-10.8-.105A5.336,5.336,0,0,1,335,320.445Z" transform="translate(-319.043 -309.641)" fill="#fff"></path></g></g></svg>