<svg xmlns="http://www.w3.org/2000/svg" width="55" height="55" viewBox="0 0 55 55"><g id="Group_322" data-name="Group 322" transform="translate(-929 -6991)"><circle id="Ellipse_63" data-name="Ellipse 63" cx="27.5" cy="27.5" r="27.5" transform="translate(929 6991)" fill="#f98d41"></circle><path id="Path_2388" data-name="Path 2388" d="M-2125.2-495.7a.953.953,0,0,1-.6-.929c0-.5.007-1,.008-1.5,0-1.485.021-2.97.006-4.455a5.32,5.32,0,0,0-.656-2.591,3.335,3.335,0,0,0-.644-.825.4.4,0,0,0-.058-.038l.012-.026.43-.056a15.722,15.722,0,0,0,3.068-.682,8.664,8.664,0,0,0,3.11-1.783,7.7,7.7,0,0,0,2.049-3.168,11.491,11.491,0,0,0,.565-2.531,15.233,15.233,0,0,0,.1-2.208,7.835,7.835,0,0,0-1.992-5.088.223.223,0,0,1-.052-.261,6.654,6.654,0,0,0,.348-2.669,8.469,8.469,0,0,0-.565-2.527.165.165,0,0,0-.148-.121,3.393,3.393,0,0,0-1.164.061,9,9,0,0,0-2.594.993c-.574.317-1.127.674-1.687,1.017a.212.212,0,0,1-.185.029,18.481,18.481,0,0,0-2.9-.55,19.483,19.483,0,0,0-3.118-.091,18.721,18.721,0,0,0-4.031.642.2.2,0,0,1-.185-.03,16.105,16.105,0,0,0-2.81-1.541,6.7,6.7,0,0,0-1.912-.524,5.877,5.877,0,0,0-.757.007.139.139,0,0,0-.1.077,8.012,8.012,0,0,0-.573,3.632,6.046,6.046,0,0,0,.363,1.665c.029.076-.008.111-.048.155a7.9,7.9,0,0,0-1.648,2.888,8.764,8.764,0,0,0-.377,2.833,13.248,13.248,0,0,0,.622,4.006,7.743,7.743,0,0,0,2.114,3.322,8.474,8.474,0,0,0,2.747,1.644,13.948,13.948,0,0,0,2.843.723c.323.05.646.093.977.14a.138.138,0,0,1-.019.033,3.9,3.9,0,0,0-1.089,1.868c-.07.249-.109.508-.166.761a.151.151,0,0,1-.067.1,5.385,5.385,0,0,1-2.665.5,3.806,3.806,0,0,1-2.63-1.364,7.048,7.048,0,0,1-.578-.79,5.309,5.309,0,0,0-1.691-1.731,2.773,2.773,0,0,0-2.026-.374.932.932,0,0,0-.235.081.28.28,0,0,0-.141.409,1.277,1.277,0,0,0,.387.452,2.644,2.644,0,0,0,.4.282,3.141,3.141,0,0,1,.992.888,9.53,9.53,0,0,1,1.317,2.266,3.646,3.646,0,0,0,2.3,2.131,6.891,6.891,0,0,0,2.495.331,12.711,12.711,0,0,0,1.918-.208c.032-.006.065-.007.108-.012,0,.038,0,.071,0,.1.009,1.215.021,2.429.022,3.644a1.321,1.321,0,0,1-.083.478.939.939,0,0,1-.9.588c-.033,0-.066,0-.1,0a18.557,18.557,0,0,0,6.161,1.046,18.553,18.553,0,0,0,6.131-1.035A1.283,1.283,0,0,1-2125.2-495.7Z" transform="translate(3087.998 7529.183)" fill="#fff"></path></g></svg>