<svg xmlns="http://www.w3.org/2000/svg" width="55" height="55" viewBox="0 0 55 55"><g transform="translate(-1106 -6992)"><circle cx="27.5" cy="27.5" r="27.5" transform="translate(1106 6992)" fill="#f98d41"></circle><g transform="translate(263.768 6970.832)"><path d="M857.233,59.908V38.125c.027-.087.055-.174.08-.261a2.251,2.251,0,0,1,1.179-1.44,5.883,5.883,0,0,1,.7-.256h21.778c.088.027.175.055.263.081a2.3,2.3,0,0,1,1.426,1.146,2.567,2.567,0,0,1,.28,1.283q0,10.338,0,20.676c0,.109,0,.218-.006.326a2.3,2.3,0,0,1-1.189,1.893,2.532,2.532,0,0,1-1.327.3q-10.336,0-20.672,0c-.109,0-.218,0-.326-.007a2.26,2.26,0,0,1-1.886-1.193A5.558,5.558,0,0,1,857.233,59.908Zm14.14-12.69-.061-.016c-.006-.08-.017-.16-.018-.241,0-.226-.008-.452,0-.677a.632.632,0,0,0-.659-.666c-.953,0-1.906-.007-2.859,0a.615.615,0,0,0-.658.662c0,.067,0,.134,0,.2q0,5.833,0,11.666a3.115,3.115,0,0,0,.009.326.574.574,0,0,0,.522.522,2.683,2.683,0,0,0,.276.008c.853,0,1.706-.017,2.558.006.579.015.824-.236.819-.829-.017-1.973-.006-3.947-.007-5.921a4.628,4.628,0,0,1,.267-1.575,2.151,2.151,0,0,1,2.012-1.645,1.944,1.944,0,0,1,2.07,1.3,4.439,4.439,0,0,1,.267,1.624q0,3.148,0,6.3c0,.525.22.744.748.745q1.43,0,2.859,0a.614.614,0,0,0,.691-.7c-.013-2.491-.024-4.983-.051-7.474a7.6,7.6,0,0,0-.507-2.672,3.927,3.927,0,0,0-2.981-2.6A6.883,6.883,0,0,0,874,45.545a3.814,3.814,0,0,0-2.352,1.326C871.558,46.985,871.466,47.1,871.373,47.218Zm-6.214,5.114q0-2.884,0-5.769c0-.109,0-.218-.006-.326a.618.618,0,0,0-.5-.583,1.579,1.579,0,0,0-.348-.035q-1.241,0-2.483,0c-.623,0-.859.242-.863.871,0,.067,0,.134,0,.2v4.941q0,3.236,0,6.471c0,.7.205.9.89.9h2.282c.142,0,.285,0,.426-.006a.622.622,0,0,0,.6-.6c.008-.108.005-.217.005-.326Q865.16,55.2,865.16,52.332Zm.612-10.588a2.71,2.71,0,1,0-2.707,2.7A2.689,2.689,0,0,0,865.772,41.744Z" transform="translate(0 0)" fill="#fff"></path></g></g></svg>