<svg xmlns="http://www.w3.org/2000/svg" xmlns:xlink="http://www.w3.org/1999/xlink" width="172.414" height="44.13" viewBox="0 0 172.414 44.13">
  <defs>
    <clipPath id="clip-path">
      <rect id="Rectangle_725" data-name="Rectangle 725" width="51.754" height="43.983" transform="translate(0 0)" fill="none"/>
    </clipPath>
    <clipPath id="clip-path-2">
      <rect id="Rectangle_726" data-name="Rectangle 726" width="172.414" height="44.13" transform="translate(0 0)" fill="none"/>
    </clipPath>
  </defs>
  <g id="Group_865" data-name="Group 865" transform="translate(-12931 -1336)">
    <g id="Group_864" data-name="Group 864" transform="translate(12931 1336)">
      <g id="Group_861" data-name="Group 861">
        <g id="Group_860" data-name="Group 860" clip-path="url(#clip-path)">
          <path id="Path_12135" data-name="Path 12135" d="M51.021,12.755a2.789,2.789,0,0,0-3.959-.146,46.749,46.749,0,0,0-8.21,10.409,87.646,87.646,0,0,0-4.545,9.09c-1.026-1.32-2.2-2.639-3.372-3.958-1.026-1.173-2.2-2.493-3.372-3.666a21.221,21.221,0,0,0,5.718-12.462c.44-4.251-.44-7.184-2.492-9.383A7.7,7.7,0,0,0,22.578.44c-4.4,1.466-7.917,7.331-8.5,14.368a16.794,16.794,0,0,0-.147,2.786C8.064,17.007,2.2,19.5.587,23.165a5.609,5.609,0,0,0,1.759,6.744c2.639,2.2,6.891,2.785,12.169,1.466l.586-.147c.587,3.959,1.173,6.744,1.32,7.184a2.76,2.76,0,1,0,5.424-1.026v-.147c0-.146-.733-3.518-1.319-7.77,1.026-.44,2.052-1.026,2.932-1.466,1.319,1.173,2.492,2.639,3.665,3.812a83.664,83.664,0,0,1,6.011,7.623L36.36,44.13l1.759-5.425A70.744,70.744,0,0,1,43.837,25.95a48.771,48.771,0,0,1,7.184-9.236,2.929,2.929,0,0,0,0-3.959M5.865,25.95a1.493,1.493,0,0,1-.293-1.319c.293-.733,2.2-1.759,6.3-1.759a4.072,4.072,0,0,1,1.319.146,1.317,1.317,0,0,1,.733.147,16.126,16.126,0,0,0,.294,2.639c-4.4,1.173-7.478,1.026-8.357.146m17.593-5.131a21.482,21.482,0,0,0-4.1-2.053,28.173,28.173,0,0,1,.147-3.518c.439-5.278,2.639-8.8,4.544-9.53A3.209,3.209,0,0,1,27.27,6.3c1.319,1.466,1.173,3.372.88,4.984a19.353,19.353,0,0,1-3.373,7.771,9.1,9.1,0,0,1-1.319,1.759" fill="#fff"/>
          <path id="Path_12136" data-name="Path 12136" d="M14.075,23.018a14.669,14.669,0,0,1,9.236,4.692l-.879.439-.587.294-.586.293-.88.586A11.95,11.95,0,0,0,14.368,25.8l-.293-2.786" fill="#e5e4e4"/>
          <path id="Path_12137" data-name="Path 12137" d="M14.368,25.657s.44,3.225.733,5.424l-1.319.293-1.466.294a28.94,28.94,0,0,0-1.027-5.278l.88-.147a3.707,3.707,0,0,0,1.026-.293l.587-.147Zm13.342-1.32a40.025,40.025,0,0,0-4.252-3.518l.146-.294.294-.293s.293-.44.439-.44c.146-.146.733-.879.733-.879l.586-.88s1.907,1.613,4.253,3.519l-.733.879-.587.733-.294.44Zm6.743,7.771s-2.2,3.518-2.052,6.45l-.586-.733-1.466-1.906Zm-15.1-13.342c-.586-.147-1.319-.44-2.054-.586a29.636,29.636,0,0,0-3.517-.733,23.861,23.861,0,0,1,.146-3.226v-.293s1.173.146,1.76.293c.44.147,1.465.293,3.665.88Z" fill="#e5e4e4"/>
          <path id="Path_12138" data-name="Path 12138" d="M14.074,23.018a14.67,14.67,0,0,1,9.237,4.692l-.88.439-.586.294-.587.293a16.261,16.261,0,0,0-7.037-4.1l-.147-1.613m.294,2.639s.439,3.225.733,5.425l-1.32.293-.586.146a25.826,25.826,0,0,0-.88-5.424,3.742,3.742,0,0,0,1.026-.293l.587-.147Zm14.807-3.225-.586.733-.293.44-.587.733a39.882,39.882,0,0,0-4.252-3.519l.147-.293.293-.294s.294-.439.44-.439c.147-.147.733-.88.733-.88Zm5.278,9.676s-2.2,3.519-2.052,6.451l-.587-.733-.879-1.173ZM19.5,16.274v2.492c-.586-.146-1.319-.439-2.053-.586a29.9,29.9,0,0,0-3.518-.733c0-1.173.146-2.492.146-2.492Z" fill="#cfcece"/>
          <path id="Path_12139" data-name="Path 12139" d="M14.075,23.018A14.665,14.665,0,0,1,23.31,27.71l-.879.586-.439.293.439-.293a15.07,15.07,0,0,0-8.209-4.4l-.147-.88m0,8.357a34.884,34.884,0,0,0-.88-5.425l-1.026.294a3.715,3.715,0,0,0,1.026-.294l.587-.146.586-.147s.44,3.226.733,5.425l-1.026.293M28.3,23.6l-.585.733a39.991,39.991,0,0,0-4.252-3.519l.146-.293.294-.293s.293-.44.439-.44c.146-.147,0,.146,0,0,0,0,1.76,1.612,4.252,3.518L28.3,23.6m6.158,8.5s-2.2,3.519-2.052,6.451l-.586-.733-.294-.44Zm-15.1-14.661v1.319c-.586-.146-1.319-.439-2.054-.586a30.04,30.04,0,0,0-3.517-.733V16.274Z" fill="#b3b2b2"/>
        </g>
      </g>
      <g id="Group_863" data-name="Group 863">
        <g id="Group_862" data-name="Group 862" clip-path="url(#clip-path-2)">
          <path id="Path_12140" data-name="Path 12140" d="M59.377,24.924a5.006,5.006,0,0,0-4.691,3.225h-.147L54.1,25.364H52.633V39h2.053V31.521a4.85,4.85,0,0,1,4.691-4.837,4.078,4.078,0,0,1,1.32.146V24.924Zm16.274,7.33c0-4.4-2.785-7.33-6.89-7.33-3.959,0-6.745,3.079-6.745,7.33,0,4.545,3.079,7.33,7.771,7.33a8.187,8.187,0,0,0,5.278-1.759V35.92a8.481,8.481,0,0,1-5.278,1.758c-3.372,0-5.718-2.051-5.718-4.838H75.651Zm-6.89-5.424A4.783,4.783,0,0,1,73.6,31.082H64.216a4.405,4.405,0,0,1,4.545-4.252m17.886.879V25.8a12.164,12.164,0,0,0-4.252-.879c-2.785,0-4.838,1.319-4.838,3.371s1.466,3.226,4.252,4.693c1.319.732,3.079,1.465,3.079,2.932,0,1.172-1.32,1.758-2.639,1.758a10,10,0,0,1-4.985-1.319v1.906a10.594,10.594,0,0,0,5.131,1.319c2.639,0,4.692-1.319,4.692-3.518,0-2.932-2.786-4.1-4.838-5.132-2.493-1.466-2.639-2.2-2.639-2.639,0-.878.733-1.611,2.932-1.611a21.041,21.041,0,0,1,4.105,1.025m11.142-.439V25.364h-6.6v-.146a3.871,3.871,0,0,0,2.346-3.959V19.646H91.485v1.76c0,2.2-.293,3.077-1.466,3.664a2.833,2.833,0,0,1-1.173.148H88.7v1.9h2.933v9.823A1.855,1.855,0,0,0,93.684,39h4.252V37.092H93.684v-9.97h4.105Zm26.244-1.76-4.545,12.315L114.21,25.51h-3.226l-4.545,12.315L101.161,25.51h-2.2l5.865,13.634h3.225L112.6,26.83l5.278,12.314H121.1l4.985-13.634h-2.052m10.116,14.074c3.958,0,6.744-3.079,6.744-7.33s-2.786-7.33-6.744-7.33S127.4,28,127.4,32.254c0,4.4,2.785,7.33,6.744,7.33m0-1.759c-2.639,0-4.692-2.346-4.692-5.425,0-3.225,2.053-5.424,4.692-5.424s4.691,2.346,4.691,5.424-1.906,5.425-4.691,5.425m15.98-12.9a5.005,5.005,0,0,0-4.691,3.225h-.147l-.44-2.785h-1.466V39h2.053V31.521a4.85,4.85,0,0,1,4.691-4.837,4.078,4.078,0,0,1,1.32.146V24.924Zm3.519,14.22H155.7V19.792h-2.053Zm16.713-19.352v8.65a5.915,5.915,0,0,0-5.424-3.518c-3.959,0-6.744,3.079-6.744,7.33s2.785,7.33,6.744,7.33a5.9,5.9,0,0,0,5.424-3.664h.147l.44,3.078h1.466V19.792ZM165.23,37.825a5.147,5.147,0,0,1-4.985-5.425,5,5,0,1,1,9.97,0,5.147,5.147,0,0,1-4.985,5.425" fill="#fff"/>
        </g>
      </g>
    </g>
  </g>
</svg>
