<svg xmlns="http://www.w3.org/2000/svg" width="250.122" height="79.585" viewBox="0 0 250.122 79.585">
  <g id="logo_lhotse" transform="translate(0 -0.549)">
    <g id="Group-28" transform="translate(0 0.549)">
      <path id="Fill-1" d="M28.714.549,0,51.384H13.876L17.629,44.7h-6.2l17.2-30.682v.007L36.343.549Z" transform="translate(0 -0.549)" fill="#fff" fill-rule="evenodd"/>
      <g id="Group-27" transform="translate(9.813 0)">
        <g id="Group-4">
          <path id="Fill-2" d="M37.278.516,33.222,7.7A32.447,32.447,0,1,1,9.077,64.135l19.17-33.993,5.741,10.246,2.43,4.274H24.139l-3.753,6.7H47.85L39.831,37.113,30.141,19.83h-.007l-1.873-3.348L.313,66.037H.32A40.06,40.06,0,1,0,37.278.516" transform="translate(-0.313 -0.516)" fill="#fff" fill-rule="evenodd"/>
        </g>
        <path id="Fill-5" d="M79.326,42.124l-3.637,10.21h7.224ZM85.06,58.5l-1.547-4.374H75.067L73.52,58.5h-2.2l7.115-19.343h1.735L87.259,58.5Z" transform="translate(12.783 11.726)" fill="#fff" fill-rule="evenodd"/>
        <path id="Fill-7" d="M100.2,58.5,89.928,42.991V58.5H87.867V39.159h1.952l10.268,15.453V39.159h2.068V58.5Z" transform="translate(18.025 11.726)" fill="#fff" fill-rule="evenodd"/>
        <path id="Fill-9" d="M111.159,42.124l-3.637,10.21h7.223ZM116.894,58.5l-1.548-4.374H106.9L105.353,58.5h-2.2l7.115-19.343h1.735L119.092,58.5Z" transform="translate(22.868 11.726)" fill="#fff" fill-rule="evenodd"/>
        <path id="Fill-11" d="M119.695,58.5V39.159h2.067V56.65h9.885v1.844H119.695Z" transform="translate(28.108 11.726)" fill="#fff" fill-rule="evenodd"/>
        <path id="Fill-13" d="M137.791,50.511v7.983H135.73V50.511l-5.756-11.353H132.2l4.562,9.263,4.512-9.263H143.5Z" transform="translate(31.365 11.726)" fill="#fff" fill-rule="evenodd"/>
        <path id="Fill-15" d="M150.751,41.008V58.5H148.69V41.008h-5.6V39.164h13.255v1.844Z" transform="translate(35.521 11.728)" fill="#fff" fill-rule="evenodd"/>
        <path id="Fill-17" d="M157.969,58.5h2.068V39.159h-2.068Z" transform="translate(40.234 11.726)" fill="#fff" fill-rule="evenodd"/>
        <path id="Fill-19" d="M172.057,58.7a6.916,6.916,0,0,1-4.946-2.01c-1.822-1.823-1.822-3.725-1.822-7.825s0-6,1.822-7.824a6.9,6.9,0,0,1,4.946-2.01,6.523,6.523,0,0,1,6.71,5.756h-2.119a4.561,4.561,0,0,0-4.592-3.912,4.649,4.649,0,0,0-3.341,1.359c-1.223,1.252-1.359,2.582-1.359,6.631s.137,5.381,1.359,6.631a4.735,4.735,0,0,0,7.983-2.552h2.061a6.517,6.517,0,0,1-6.7,5.756" transform="translate(42.553 11.686)" fill="#fff" fill-rule="evenodd"/>
        <path id="Fill-20" d="M186.422,58.7a8.436,8.436,0,0,1-6.631-2.553l1.41-1.41a6.641,6.641,0,0,0,5.271,2.118c2.827,0,4.563-1.331,4.563-3.587a3.1,3.1,0,0,0-.925-2.415,4.188,4.188,0,0,0-2.524-.926l-2.256-.354a7.011,7.011,0,0,1-3.558-1.468,4.584,4.584,0,0,1-1.468-3.616c0-3.283,2.365-5.459,6.191-5.459a7.743,7.743,0,0,1,5.756,2.118l-1.331,1.331a6.1,6.1,0,0,0-4.512-1.656c-2.581,0-4.07,1.44-4.07,3.587a2.805,2.805,0,0,0,.867,2.227,5.566,5.566,0,0,0,2.61,1.056l2.119.325a6.2,6.2,0,0,1,3.529,1.359,4.855,4.855,0,0,1,1.627,3.832c.014,3.4-2.646,5.489-6.667,5.489" transform="translate(47.148 11.686)" fill="#fff" fill-rule="evenodd"/>
        <path id="Fill-21" d="M77.036,11.175h-5.72V41.35H91.078V35.869H77.036Z" transform="translate(12.781 2.861)" fill="#fff" fill-rule="evenodd"/>
        <path id="Fill-22" d="M107.275,23.533H97.216V11.175H91.5V41.35h5.72v-12.6h10.058v12.6h5.72V11.175h-5.72Z" transform="translate(19.175 2.861)" fill="#fff" fill-rule="evenodd"/>
        <path id="Fill-23" d="M120.783,18.55a4.876,4.876,0,0,1,1.6-1.3,5.36,5.36,0,0,1,2.321-.535,5.657,5.657,0,0,1,2.4.528,4.609,4.609,0,0,1,1.519,1.287l.043.058a4.451,4.451,0,0,1,1.005,2.061,36.633,36.633,0,0,1,.282,5.669,35.715,35.715,0,0,1-.282,5.619,4.436,4.436,0,0,1-1.005,2.111l-.043.058a4.213,4.213,0,0,1-1.526,1.258,4.746,4.746,0,0,1-2.379.564,5.269,5.269,0,0,1-3.97-1.88,4.147,4.147,0,0,1-.962-2.119,33.139,33.139,0,0,1-.3-5.619,34.17,34.17,0,0,1,.3-5.669,4.318,4.318,0,0,1,1-2.09M134.32,16.5a10.46,10.46,0,0,0-3.478-3.767,10.792,10.792,0,0,0-6.125-1.743,10.878,10.878,0,0,0-9.6,5.5,8.785,8.785,0,0,0-1.063,2.986,47.742,47.742,0,0,0-.3,6.841,48.918,48.918,0,0,0,.3,6.8,8.885,8.885,0,0,0,.441,1.7c.174.4.37.824.593,1.294a10.409,10.409,0,0,0,3.573,3.76,10.8,10.8,0,0,0,6.073,1.779,11.088,11.088,0,0,0,6.1-1.772,10.111,10.111,0,0,0,3.485-3.731,7.4,7.4,0,0,0,1.092-3.037,54.64,54.64,0,0,0,.268-6.783,54.829,54.829,0,0,0-.268-6.833A7.252,7.252,0,0,0,134.32,16.5" transform="translate(26.224 2.803)" fill="#fff" fill-rule="evenodd"/>
        <path id="Fill-24" d="M133.489,16.417h7.889V41.35h5.742V16.417h7.889V11.175h-21.52Z" transform="translate(32.478 2.861)" fill="#fff" fill-rule="evenodd"/>
        <path id="Fill-25" d="M166.379,23.634h-.007c-1.352-.166-2.437-.318-3.2-.448a4.993,4.993,0,0,1-2.741-1.229,2.5,2.5,0,0,1-.782-1.772,3.077,3.077,0,0,1,1.172-2.6,4.8,4.8,0,0,1,2.943-.875,12.633,12.633,0,0,1,6.783,2.1l.556.369,3.175-4.693-.529-.383a17,17,0,0,0-9.754-3.117,10.518,10.518,0,0,0-7.355,2.509,8.582,8.582,0,0,0-2.725,6.587,8.348,8.348,0,0,0,2.169,5.792,10.131,10.131,0,0,0,6.06,2.965c1.388.2,2.66.376,3.8.528,2.892.5,3.211,2.068,3.2,3.2-.029,1.41-.579,3.29-5.011,3.355a12.067,12.067,0,0,1-7.766-2.712l-.507-.419L152.1,37.083l.513.441a17.072,17.072,0,0,0,11.461,4.114c7.008-.086,10.637-3.123,10.789-9.06a8.824,8.824,0,0,0-2.075-5.807,9.67,9.67,0,0,0-6.414-3.138" transform="translate(38.376 2.803)" fill="#fff" fill-rule="evenodd"/>
        <path id="Fill-26" d="M194.7,16.656V11.175H174.943V41.35H194.7V35.869H180.663V28.753h11.982V23.533H180.663V16.656Z" transform="translate(45.612 2.861)" fill="#fff" fill-rule="evenodd"/>
      </g>
    </g>
  </g>
</svg>
