<?xml version="1.0" encoding="utf-8"?>
<!-- Generator: Adobe Illustrator 25.4.1, SVG Export Plug-In . SVG Version: 6.00 Build 0)  -->
<svg version="1.1" id="Layer_1" xmlns="http://www.w3.org/2000/svg" xmlns:xlink="http://www.w3.org/1999/xlink" x="0px" y="0px"
	 viewBox="0 0 131.7 99" style="enable-background:new 0 0 131.7 99;" xml:space="preserve">
<style type="text/css">
	.st0{fill:#FFFFFF;}
	.st1{font-family:'ArialMT';}
	.st2{font-size:31px;}
	.st3{letter-spacing:1;}
</style>
<g id="Group_359" transform="translate(-1610 -2660.001)">
	<path id="Subtraction_1" class="st0" d="M1641.5,2721c-4.1,0-8.1-0.8-11.9-2.4c-3.6-1.5-6.9-3.8-9.7-6.5c-2.8-2.8-5-6.1-6.5-9.7
		c-1.6-3.8-2.4-7.8-2.4-11.9c0-4.1,0.8-8.1,2.4-11.9c1.5-3.6,3.8-6.9,6.5-9.7c2.8-2.8,6.1-5,9.7-6.5c3.8-1.6,7.8-2.4,11.9-2.4
		c4.1,0,8.1,0.8,11.9,2.4c3.6,1.5,6.9,3.7,9.7,6.5c2.8,2.8,5,6.1,6.5,9.7c1.6,3.8,2.4,7.8,2.4,11.9c0,4.1-0.8,8.1-2.4,11.9
		c-1.5,3.6-3.8,6.9-6.5,9.7c-2.8,2.8-6.1,5-9.7,6.5C1649.6,2720.2,1645.6,2721,1641.5,2721z M1642,2668c-3.1,0-6.1,0.6-9,1.8
		c-2.7,1.2-5.2,2.8-7.3,4.9c-2.1,2.1-3.8,4.6-4.9,7.3c-1.2,2.8-1.8,5.9-1.8,9c0,3.1,0.6,6.1,1.8,9c1.2,2.7,2.8,5.2,4.9,7.3
		c2.1,2.1,4.6,3.8,7.3,4.9c2.8,1.2,5.9,1.8,9,1.8c3.1,0,6.1-0.6,9-1.8c2.7-1.2,5.2-2.8,7.3-4.9c2.1-2.1,3.8-4.6,4.9-7.3
		c1.2-2.8,1.8-5.9,1.8-9c0-3.1-0.6-6.1-1.8-9c-1.2-2.7-2.8-5.2-4.9-7.3c-2.1-2.1-4.6-3.8-7.3-4.9
		C1648.1,2668.6,1645.1,2668,1642,2668z"/>
	<path id="Path_2684" class="st0" d="M1659.5,2703.2l13.1,11.1l-6.5,7.6l-12.4-12.8L1659.5,2703.2z"/>
	<path id="Path_2685" class="st0" d="M1686.3,2673v8.3h-9.2v-17.6h35.6c0,0,7.8,0.8,4.6,8.3s-24,49.7-24,49.7h-10.5l24.1-48.7
		L1686.3,2673z"/>
	<text transform="matrix(1 0 0 1 1610 2752)" class="st0 st1 st2 st3">LEADER</text>
</g>
</svg>
