<svg xmlns="http://www.w3.org/2000/svg" width="55" height="55" viewBox="0 0 55 55"><g id="Group_323" data-name="Group 323" transform="translate(-1042 -6991)"><circle id="Ellipse_64" data-name="Ellipse 64" cx="27.5" cy="27.5" r="27.5" transform="translate(1042 6991)" fill="#f98d41"></circle><path id="Path_2389" data-name="Path 2389" d="M-454.943,217.385c.992-3.225,2.911-5.316,6.131-5.994a8.838,8.838,0,0,1,6.621,1.1c3.561,2.164,4.854,7.555,2.725,11.322a8,8,0,0,1-3.671,3.447,8.669,8.669,0,0,1-4.993.705,10.283,10.283,0,0,1-4.682-2.168c-.116.672-.22,1.256-.317,1.841-.32,1.935-.648,3.868-.948,5.805-.058.373-.2.476-.567.468-1.044-.023-2.088-.008-3.238-.008.112-.685.207-1.309.316-1.93.531-3.03,1.07-6.058,1.591-9.09a.943.943,0,0,0-.106-.623,27.8,27.8,0,0,1-3.454-7.527c-.02-.066-.063-.126-.21-.191q0,.273,0,.547c0,1.691.054,3.384-.017,5.072a8.088,8.088,0,0,1-2.949,6.323,7.393,7.393,0,0,1-5.527,1.535,7.525,7.525,0,0,1-6.858-6.6,8.573,8.573,0,0,1-.138-1.423c-.014-2.628-.009-5.256-.009-7.884,0-.125.014-.251.025-.425h3.673c0,.251,0,.467,0,.682,0,2.591-.036,5.183.009,7.773a4.794,4.794,0,0,0,1.725,3.891,3.759,3.759,0,0,0,5.716-1.279,7.251,7.251,0,0,0,.626-2.7c.083-2.57.03-5.145.031-7.718v-.653c.232-.019.426-.048.62-.048,1.764,0,3.528.017,5.292-.015.487-.009.634.185.764.614.448,1.469.946,2.923,1.436,4.378A6.9,6.9,0,0,0-454.943,217.385Zm7.462,7.4a4.752,4.752,0,0,0,3.9-1.311,5.532,5.532,0,0,0,1.273-5.419,4.66,4.66,0,0,0-3.666-3.539,4.43,4.43,0,0,0-4.823,2.306,11.517,11.517,0,0,0-1.331,4.446,1.024,1.024,0,0,0,.127.673A6.521,6.521,0,0,0-447.481,224.786Z" transform="translate(1526.246 6798.824)" fill="#fff"></path></g></svg>